<svg width="92" height="44" viewBox="0 0 92 44" fill="none" xmlns="http://www.w3.org/2000/svg">
<rect width="92" height="44" rx="22" fill="black"/>
<path d="M28.26 26.12C30.828 26.12 31.92 25.22 31.92 23.444C31.92 21.512 30.504 21.212 28.512 20.876C26.976 20.612 26.1 20.42 26.1 19.412C26.1 18.476 26.7 18.08 28.236 18.08C29.232 18.08 30.204 18.368 30.816 18.776L31.476 17.78C30.768 17.312 29.736 16.964 28.236 16.964C26.016 16.964 24.9 17.648 24.9 19.436C24.9 21.284 26.172 21.632 28.212 21.968C29.748 22.22 30.72 22.4 30.72 23.504C30.72 24.584 30.036 25.052 28.224 25.052C27.144 25.052 26.076 24.8 25.044 24.128L24.432 25.064C25.536 25.808 26.808 26.12 28.26 26.12ZM36.2055 26.12C38.7735 26.12 39.1095 25.076 39.1095 23.108V19.328H37.9695V23.132C37.9695 24.224 37.9815 25.052 36.2055 25.052C34.4415 25.052 34.4295 24.224 34.4295 23.168V19.328H33.2655V23.144C33.2655 25.076 33.6375 26.12 36.2055 26.12ZM44.3535 26.12C46.6215 26.12 47.2695 24.692 47.2695 22.652C47.2695 20.612 46.6575 19.172 44.4135 19.172C43.0815 19.172 42.3375 19.424 41.9655 19.988V16.688H40.8015V25.964L41.6175 26.048L41.8335 25.292C42.2415 25.868 42.9255 26.12 44.3535 26.12ZM44.1615 25.076C42.5535 25.076 41.9775 24.464 41.9775 22.7C41.9775 20.924 42.5895 20.288 44.1615 20.288C45.6975 20.288 46.0815 21.224 46.0815 22.7C46.0815 24.152 45.6735 25.076 44.1615 25.076ZM48.6765 26H49.8525V22.304C49.8525 21.152 50.0805 20.324 51.7245 20.324C53.2245 20.324 53.2725 21.08 53.2725 22.16V26H54.4245V22.304C54.4245 21.152 54.6645 20.324 56.3085 20.324C57.8085 20.324 57.8445 21.08 57.8445 22.16V26H59.0205V21.932C59.0205 20.288 58.7925 19.172 56.6805 19.172C55.1805 19.172 54.4365 19.532 54.1245 20.012C53.9445 19.52 53.5005 19.172 52.0845 19.172C50.6325 19.172 49.9605 19.532 49.6965 19.964L49.6005 19.328L48.6765 19.388V26ZM60.7719 26H61.9239V19.328H60.7719V26ZM60.7599 18.524H61.9359V17.108H60.7599V18.524ZM63.2074 20.384H64.3834V24.176C64.3834 25.412 64.7194 26.012 66.3034 26.012C66.4834 26.012 67.1674 26.012 67.3114 26V24.968H66.5074C65.6194 24.968 65.5474 24.608 65.5474 24.02V20.384H67.3114V19.328H65.5474V17.252L64.6234 17.432L64.4194 19.328H63.2074V20.384Z" fill="white"/>
</svg>
